<svg width="37" height="36" viewBox="0 0 37 36" fill="none" xmlns="http://www.w3.org/2000/svg">
<path d="M22.4013 25.7003H22.6427L22.6242 25.6817C23.3527 25.5593 23.886 24.8447 23.886 23.9979V23.4044C23.886 20.542 21.6079 18.2203 18.8206 18.2203C16.0174 18.2203 13.8364 20.3398 13.7355 23.0842L13.7354 23.0842V23.0879V23.978C13.7354 24.9095 14.4003 25.7003 15.2401 25.7003H22.4013ZM14.5488 23.9979V23.4089L14.5488 23.4089V23.2462C14.5488 20.8695 16.4215 19.0142 18.8595 19.0336H18.8603C21.2156 19.0336 23.1322 21.0037 23.1322 23.444V23.9979C23.1322 24.5384 22.7814 24.9266 22.4211 24.9266H15.2599C14.881 24.9266 14.5488 24.54 14.5488 23.9979Z" fill="#666D73" stroke="#666D73" stroke-width="0.2" stroke-linecap="round"/>
<path d="M15.3375 13.7891C15.3375 15.7039 16.9055 17.272 18.8204 17.272C20.7352 17.272 22.3032 15.7041 22.3032 13.7891C22.3032 11.8743 20.7352 10.3062 18.8204 10.3062C16.9055 10.3062 15.3375 11.8743 15.3375 13.7891ZM16.131 13.7892C16.131 12.3014 17.3326 11.0999 18.8204 11.0999C20.3081 11.0999 21.5097 12.3014 21.5097 13.7892C21.5097 15.277 20.3081 16.4786 18.8204 16.4786C17.3326 16.4786 16.131 15.277 16.131 13.7892Z" fill="#666D73" stroke="#666D73" stroke-width="0.2" stroke-linecap="round"/>
<rect x="1.31152" y="0.5" width="35" height="35" rx="17.5" stroke="#666D73" stroke-linecap="round" stroke-linejoin="round" stroke-dasharray="1 3"/>
</svg>
